<svg xmlns="http://www.w3.org/2000/svg" viewBox="0 0 158.86 158.86">
    <path d="M13.01 44.28a13 13 0 11-13 13 13 13 0 0113-13" />
    <path d="M35.15 66.42a13 13 0 11-13 13 13 13 0 0113-13" />
    <path d="M57.29 88.56a13 13 0 11-13 13 13 13 0 0113-13" />
    <path d="M57.29 132.85a13 13 0 11-13 13 13 13 0 0113-13" />
    <path d="M79.43 110.71a13 13 0 11-13 13 13 13 0 0113-13" />
    <path d="M101.57 88.56a13 13 0 11-13 13 13 13 0 0113-13" />
    <path d="M57.29 44.28a13 13 0 11-13 13 13 13 0 0113-13" />
    <path d="M79.43 22.14a13 13 0 11-13 13 13 13 0 0113-13" />
    <path d="M101.57 44.28a13 13 0 11-13 13 13 13 0 0113-13" />
    <path d="M123.72 66.42a13 13 0 11-13 13 13 13 0 0113-13" />
    <path d="M145.86 88.56a13 13 0 11-13 13 13 13 0 0113-13" />
    <path d="M101.57 0a13 13 0 11-13 13 13 13 0 0113-13" />
    <path
        d="M128.15 115.09a5.2 5.2 0 11-5.2-5.19 5.21 5.21 0 015.2 5.19zm-.85 0a4.36 4.36 0 10-4.35 4.49 4.35 4.35 0 004.35-4.49zm-5.44 3.09h-.84v-6.17h2.37c1.38 0 2 .6 2 1.7a1.66 1.66 0 01-1.43 1.73l1.72 2.74h-.96l-1.68-2.74h-1.19zm1-3.44c.81 0 1.72 0 1.72-1 0-.87-.7-1-1.34-1h-1.35v2z" />
</svg>