<svg id="cum" xmlns="http://www.w3.org/2000/svg" viewBox="0 0 160.07 160.07">
    <title>ExecuTime</title>
    <g style="transform: rotate(45deg);transform-origin: 50% 50%;">
        <path d="M14.29,45.49a13,13,0,1,1-13,13,13,13,0,0,1,13-13"></path>
        <path d="M36.43,67.63a13,13,0,1,1-13,13,13,13,0,0,1,13-13"></path>
        <path d="M58.57,89.77a13,13,0,1,1-13,13,13,13,0,0,1,13-13"></path>
        <path d="M58.57,134.06a13,13,0,1,1-13,13,13,13,0,0,1,13-13"></path>
        <path d="M80.71,111.92a13,13,0,1,1-13,13,13,13,0,0,1,13-13"></path>
        <path d="M102.85,89.77a13,13,0,1,1-13,13,13,13,0,0,1,13-13"></path>
        <path d="M58.57,45.49a13,13,0,1,1-13,13,13,13,0,0,1,13-13"></path>
        <path d="M80.71,23.35a13,13,0,1,1-13,13,13,13,0,0,1,13-13"></path>
        <path d="M102.85,45.49a13,13,0,1,1-13,13,13,13,0,0,1,13-13"></path>
        <path d="M125,67.63a13,13,0,1,1-13,13,13,13,0,0,1,13-13"></path>
        <path d="M147.14,89.77a13,13,0,1,1-13,13,13,13,0,0,1,13-13"></path>
        <path d="M102.85,1.21a13,13,0,1,1-13,13,13,13,0,0,1,13-13"></path>
    </g>
</svg>